<svg width="299" height="291" viewBox="0 0 299 291" fill="none" xmlns="http://www.w3.org/2000/svg">
<path d="M83.5451 145.792C85.1335 149.48 87.3502 152.653 89.7925 154.771C93.6253 158.094 98.3574 159.799 103.072 159.799C104.955 159.799 106.833 159.517 108.652 158.968C108.118 164.238 108.652 169.238 110.182 173.69C108.205 180.306 104.003 184.956 98.2501 186.836C93.1077 188.515 87.3004 187.703 83.7962 184.813C83.7962 184.813 88.0084 194.753 99.6228 191.044C105.459 189.136 109.99 185.019 112.775 179.231C113.592 180.572 114.52 181.835 115.559 183.009C125.529 191.229 134.356 186.731 134.356 186.731C128.653 186.649 123.161 184.089 119.287 179.71C116.087 176.091 112.506 169.605 113.623 159.242C115.341 143.3 127.645 126.973 150.587 128.814C170.286 130.391 181.316 145.214 183.867 154.446C182.981 154.709 182.081 155.022 181.171 155.395C169.107 161.372 169.107 172.484 169.107 172.484C174.905 163.38 182.705 158.442 191.662 158.208C201.702 157.948 211.152 163.715 215.312 169.55C215.312 169.55 215.494 160.358 202.846 154.976C199.339 153.796 195.517 153.128 191.532 153.231C190.652 153.254 189.722 153.322 188.761 153.438C187.533 148.644 184.637 143.136 180.167 138.17C179.216 134.056 180.402 131.088 183.793 129.117L183.917 129.044L183.894 129.006C188.203 126.341 192.204 122.641 195.123 118.169C204.047 111.516 215.81 115.725 217.256 117.324C217.256 117.324 217.256 111.579 209.641 110.278C206.535 109.939 202.521 110.012 198.41 111.457C198.456 111.322 198.507 111.191 198.551 111.054C200.965 103.59 200.06 95.3762 196.069 88.518C191.62 80.6893 182.909 80.6893 182.909 80.6893C182.909 80.6893 187.472 83.7721 191.767 91.0231C195.048 96.6598 195.794 103.402 193.815 109.522C191.637 116.256 186.705 121.476 181.387 124.758L181.386 124.757L181.292 124.812C181.173 124.882 181.064 124.957 180.948 125.029C176.244 127.827 171.293 129.102 167.71 128.563C162.891 126.085 157.308 124.357 150.983 123.851C150.301 123.796 149.622 123.758 148.949 123.732C149.584 119.028 149.009 112.782 146.552 107.176C141.982 97.9787 133.429 99.405 133.429 99.405C143.354 103.77 145.729 116.605 144.473 123.774C135.596 124.293 127.718 127.444 121.43 133.05C115.608 138.239 111.522 145.273 109.62 153.23C104.332 155.959 97.7966 155.121 93.0523 151.008C88.0836 146.7 84.3835 136.791 86.7971 128.906C86.7971 128.906 79.2544 133.665 83.5451 145.792ZM130.008 215.526C132.931 215.526 135.903 215.083 138.877 214.183C150.455 210.681 159.987 200.814 161.541 190.72C163.043 180.961 160.849 171.27 155.521 164.132C147.282 153.995 136.438 158.177 136.438 158.177C142.574 159.012 147.794 162.102 151.533 167.111C156.067 173.186 157.922 181.514 156.621 189.963C155.364 198.126 147.117 206.489 137.436 209.416C131.786 211.126 120.833 212.376 110.958 201.557C110.958 201.557 110.959 213.564 130.008 215.526ZM42.7563 166.615C42.7651 166.439 42.7806 166.264 42.7927 166.088C42.8215 165.682 42.8569 165.277 42.9012 164.873C42.9233 164.674 42.9465 164.476 42.9731 164.277C43.0239 163.88 43.0859 163.485 43.1534 163.091C43.1832 162.915 43.2098 162.738 43.243 162.563C43.3491 162.004 43.4675 161.45 43.6058 160.903C46.422 149.823 55.0078 144.845 59.4014 142.974C59.4755 143.955 59.5707 144.926 59.7034 145.876C60.1569 149.12 60.9456 152.177 62.0329 154.98C67.4563 166.111 76.989 166.111 76.989 166.111C70.0657 162.771 65.2064 154.492 63.9797 144.377C63.8016 142.907 63.6999 141.398 63.68 139.859C63.5804 132.081 65.5781 124.662 69.3069 118.969C78.4823 104.961 95.9549 105.579 101.198 107.524C101.229 108.382 101.305 109.505 101.456 110.808C101.551 111.623 101.674 112.507 101.832 113.438C104.512 125.364 112.399 126.521 112.399 126.521C109.058 123.557 107.312 118.405 106.429 114.027C105.673 110.277 105.552 107.095 105.609 106.341L105.729 105.541C106.53 99.9804 108.018 89.63 118.697 82.8327C130.554 75.284 145.478 78.5593 152.629 82.6058L152.648 82.6169C154.006 83.4313 156.552 85.09 159.23 87.5044C163.56 91.406 168.235 97.2838 168.813 104.787C168.813 104.787 172.816 96.1806 165.54 87.6029C163.264 85.0324 160.836 82.9621 158.78 81.423C157.695 80.6108 156.717 79.9491 155.915 79.4368C155.962 77.3499 156.599 74.6201 158.926 71.9345C161.878 68.5298 168.485 64.2597 183.198 63.2561C203.261 61.8884 215.447 72.3063 219.506 84.2501C218.38 84.02 217.329 83.8817 216.341 83.8119C207.788 83.2034 204.33 87.9979 204.33 87.9979C208.828 86.8593 214.183 87.5697 217.762 88.3874C219.664 88.8212 221.061 89.2848 221.56 89.5172L221.706 89.5891C232.4 94.8639 238.69 102.843 240.4 113.308C241.823 122.013 239.582 130.007 238.023 133.387C237.914 133.581 237.101 134.95 235.535 136.66C231.32 141.266 221.636 148.354 205.457 141.713C205.457 141.713 209.318 148.186 217.983 148.836C220.646 148.836 223.049 148.487 225.187 147.933C227.737 147.271 229.909 146.315 231.697 145.308C234.263 143.863 236.349 142.148 237.971 140.527C238.732 139.765 239.394 139.025 239.948 138.344C244.143 145.66 248.093 158.515 244.79 170.851C242.172 180.628 234.278 187.22 229.501 190.434C229.504 190.403 229.509 190.372 229.512 190.341C229.626 189.133 229.621 188.035 229.53 187.035C228.972 180.855 225.09 178.542 225.09 178.542C225.454 182.482 225.452 186.28 225.102 189.897C224.957 191.396 224.759 192.865 224.492 194.295C223.032 202.121 219.057 212.459 208.409 217.263C199.207 221.414 190.943 220.662 186.833 219.845C187.291 219.016 187.69 218.159 188.046 217.284C190.36 211.601 190.596 205.058 189.478 198.92C193.006 198.377 195.925 197.216 198.275 195.656C204.894 189.22 201.71 183.253 201.71 183.253C201.233 185.642 198.884 193.208 188.405 194.612C184.951 184.865 177.153 183.313 177.153 183.313C183.184 188.675 188.896 204.57 183.783 216.076C183.196 217.398 182.473 218.665 181.583 219.849C168.162 236.166 148.219 235.313 139.006 230.135C139.555 229.37 139.967 228.535 140.269 227.677C141.621 223.843 140.821 219.6 140.821 219.6C140.153 221.961 138.77 224.038 137.424 225.612C136.107 227.153 134.829 228.207 134.287 228.578C116.619 239.3 100.736 235.867 92.8267 227.7L91.9805 226.825L91.9683 226.828C91.2825 226.088 90.6653 225.273 90.1189 224.384C87.2971 219.798 86.3414 213.289 87.4365 205.576C87.4365 205.576 80.9811 214.301 84.7773 223.64C84.9908 224.146 85.2231 224.637 85.4664 225.118C85.9288 226.035 86.4454 226.905 87.0161 227.722C73.1164 229.658 56.9513 226.731 49.4904 212.97C44.2363 203.279 44.5935 195.46 45.5614 191.026C45.8545 191.411 46.1532 191.791 46.4629 192.157C46.9408 192.721 47.4374 193.251 47.9429 193.763C49.163 194.996 50.4572 196.081 51.8255 196.997C57.6847 200.654 66.4431 196.327 66.4431 196.327C58.2234 197.009 52.8752 192.883 49.84 189.297C49.6298 189.049 49.4351 188.783 49.2338 188.525C48.3422 187.382 47.5248 186.153 46.8058 184.837C46.7859 184.802 46.7693 184.764 46.7494 184.729C46.4928 184.254 46.2472 183.768 46.0127 183.275C45.9585 183.162 45.9087 183.046 45.8556 182.932C45.6565 182.498 45.4652 182.059 45.2838 181.614C45.2362 181.499 45.1898 181.383 45.1444 181.268C44.9542 180.784 44.7738 180.295 44.6046 179.8C44.5814 179.732 44.5559 179.663 44.5327 179.595C43.9476 177.845 43.4985 176.031 43.191 174.191C43.1755 174.097 43.1611 174.002 43.1456 173.908C43.0649 173.4 42.9963 172.89 42.9377 172.38C42.9233 172.259 42.9089 172.139 42.8967 172.019C42.8425 171.497 42.8005 170.975 42.7684 170.453C42.764 170.366 42.7563 170.281 42.7518 170.196C42.7186 169.581 42.702 168.965 42.7032 168.352C42.7032 168.332 42.7043 168.313 42.7043 168.293C42.7065 167.732 42.7253 167.172 42.7563 166.615Z" fill="#F553B1"/>
<path d="M191.072 123.019C191.277 122.863 191.487 122.712 191.699 122.562C192.95 121.199 194.102 119.732 195.122 118.169C198.789 115.434 202.937 114.535 206.65 114.535C211.973 114.535 216.403 116.382 217.255 117.324C214.493 113.091 210.516 112.767 209.364 112.767C209.157 112.767 209.041 112.778 209.041 112.778L194.661 114.92C194.661 114.92 191.008 119.328 191.072 123.019Z" fill="#B3D2FF"/>
<path d="M191.699 122.562C197.736 118.33 206.293 116.802 212.203 116.802C214.295 116.802 216.056 116.993 217.255 117.324C216.403 116.382 211.973 114.535 206.65 114.535C202.937 114.535 198.789 115.434 195.122 118.169C194.102 119.732 192.95 121.199 191.699 122.562Z" fill="#F59ACF"/>
<path d="M169.108 172.484C174.906 163.38 182.706 158.442 191.663 158.208C191.882 158.202 192.102 158.2 192.321 158.2C202.114 158.2 211.244 163.842 215.312 169.55C213.861 166.113 210.834 163.057 208.326 160.953C207.074 160.396 205.6 159.74 203.988 159.084C199.843 157.396 194.797 155.708 190.32 155.708C190.298 155.708 190.276 155.708 190.254 155.708C190.249 155.708 190.243 155.709 190.239 155.709C188.972 155.86 187.742 156.119 186.553 156.475C186.739 157.007 186.832 157.323 186.832 157.323C186.832 157.323 183.994 157.495 180.424 159.325C175.373 162.575 171.459 167.517 169.108 172.484Z" fill="#B3D2FF"/>
<path d="M169.108 172.484C177.266 164.289 185.299 161.572 192.506 161.572C202.141 161.572 210.303 166.428 215.312 169.55C211.244 163.842 202.114 158.2 192.321 158.2C192.102 158.2 191.882 158.202 191.663 158.208C182.706 158.442 174.906 163.38 169.108 172.484Z" fill="#F59ACF"/>
<path d="M121.937 182.229C120.99 181.474 120.102 180.633 119.286 179.71C116.086 176.091 112.505 169.605 113.622 159.242C115.251 144.131 126.394 128.673 147.089 128.673C148.227 128.673 149.389 128.719 150.586 128.814C164.745 129.947 174.424 137.924 179.697 145.748C179.809 145.829 179.92 145.912 180.029 145.997L178.05 141.105C178.05 141.105 163.689 126.702 146.551 126.562C146.459 126.561 146.371 126.561 146.279 126.561C143.557 126.561 140.917 126.895 138.398 127.511C136.195 129.422 133.297 130.151 130.773 130.374C121.434 135.201 114.764 143.946 113.175 152.705C110.796 165.824 113.22 176.154 121.937 182.229Z" fill="#B3D2FF"/>
<path d="M122.008 182.279C108.033 161.218 124.853 133.017 146.089 133.017C146.727 133.017 147.373 133.042 148.018 133.094C167.195 134.64 177.367 143.668 179.736 146.046C179.724 145.948 179.711 145.849 179.697 145.748C174.424 137.924 164.744 129.947 150.585 128.814C149.388 128.719 148.226 128.673 147.088 128.673C126.393 128.673 115.25 144.131 113.621 159.242C112.504 169.605 116.085 176.091 119.285 179.71C120.101 180.633 120.989 181.474 121.936 182.229C121.959 182.246 121.984 182.262 122.008 182.279Z" fill="#F59ACF"/>
<path d="M246.926 170.731C251.904 157.316 241.395 135.323 241.395 135.323C241.395 135.323 237.109 139.335 235.865 141.105C236.094 141.358 236.319 141.613 236.536 141.869C237.049 141.42 237.527 140.969 237.97 140.527C238.731 139.765 239.393 139.025 239.947 138.344C244.011 145.432 247.845 157.718 245.078 169.692C245.078 169.694 245.078 169.694 245.078 169.694L246.926 170.731Z" fill="#B3D2FF"/>
<path d="M245.079 169.692C247.846 157.718 244.012 145.432 239.948 138.344C239.394 139.025 238.732 139.765 237.971 140.527C237.528 140.969 237.049 141.42 236.537 141.869C246.568 153.657 245.084 169.637 245.079 169.692Z" fill="#F59ACF"/>
<path d="M44.1199 178.27C43.7327 176.937 43.4219 175.571 43.1918 174.192C43.1763 174.097 43.1619 174.002 43.1465 173.908C43.0657 173.4 42.9971 172.89 42.9385 172.38C42.9241 172.26 42.9097 172.139 42.8976 172.019C42.8434 171.497 42.8013 170.975 42.7693 170.453C42.7648 170.366 42.7571 170.281 42.7527 170.196C42.7195 169.581 42.7029 168.965 42.704 168.352C42.704 168.332 42.7051 168.313 42.7051 168.293C42.7073 167.732 42.7261 167.172 42.7571 166.615C42.766 166.439 42.7814 166.264 42.7936 166.088C42.8224 165.682 42.8578 165.277 42.902 164.873C42.9241 164.674 42.9474 164.476 42.9739 164.277C43.0248 163.88 43.0867 163.485 43.1542 163.091C43.1841 162.915 43.2106 162.738 43.2438 162.563C43.35 162.004 43.4683 161.45 43.6066 160.903C46.4228 149.823 55.0087 144.845 59.4022 142.974C59.4764 143.955 59.5715 144.926 59.7042 145.876C59.8746 147.093 60.0914 148.283 60.3547 149.444C64.048 159.478 69.2812 161.975 75.6138 165.366C69.4261 161.642 65.1243 153.808 63.9805 144.377C63.8025 142.907 63.7007 141.398 63.6808 139.859C63.5812 132.081 65.5789 124.662 69.3077 118.969C75.772 109.099 86.3566 106.49 93.8794 106.49C97.0342 106.49 99.6502 106.949 101.199 107.524C101.23 108.382 101.306 109.505 101.456 110.808C101.552 111.623 101.674 112.507 101.833 113.438C101.833 113.438 106.725 121.538 112.4 126.521C109.059 123.557 107.312 118.405 106.43 114.027C105.674 110.277 105.553 107.095 105.61 106.341L105.73 105.541C106.53 99.9804 108.019 89.6301 118.698 82.8327C123.887 79.5297 129.663 78.2982 135.118 78.2982C142.129 78.2982 148.608 80.3297 152.63 82.6059L152.649 82.6169C154.007 83.4313 156.553 85.09 159.231 87.5044C163.561 91.406 168.236 97.2839 168.814 104.787C170.801 96.1508 162.585 86.3138 160.741 84.1008C160.778 83.7511 160.813 83.4048 160.847 83.0595C160.133 82.4609 159.438 81.9154 158.781 81.423C157.696 80.6108 156.718 79.9491 155.916 79.4368C155.963 77.3499 156.6 74.6201 158.927 71.9346C161.879 68.5298 168.486 64.2597 183.199 63.2561C184.394 63.1742 185.562 63.1344 186.701 63.1344C204.685 63.1344 215.688 73.0178 219.507 84.2501C218.381 84.02 217.33 83.8817 216.342 83.812C215.832 83.7754 215.339 83.7577 214.865 83.7577C214.346 83.7577 213.848 83.7788 213.37 83.8164C213.358 83.8219 208.117 86.3149 204.331 87.9979C206.012 87.573 207.813 87.4048 209.596 87.4048C212.584 87.4048 215.521 87.8751 217.762 88.3874C219.665 88.8212 221.062 89.2848 221.561 89.5172L221.707 89.5891C232.401 94.8639 238.69 102.843 240.401 113.308C241.134 117.795 240.894 122.094 240.276 125.669L243.876 124.857C246.274 108.42 236.327 93.1366 224.344 85.4275C212.343 66.2968 198.781 60.1379 186.527 60.1379C173.234 60.1379 161.481 67.3945 154.954 73.2104L151.524 78.0149C151.524 78.0149 140.093 76.1703 133.36 74.8801C129.645 75.128 126.352 75.8184 123.432 76.8276C111.497 82.0603 104.586 94.0882 101.378 102.912L75.3782 108.149C63.0049 115.741 60.7042 129.781 60.0825 139.191C33.5352 152.603 41.6465 174.282 44.1199 178.271" fill="#B3D2FF"/>
<path d="M44.1192 178.271C40.5088 160.314 54.5512 151.414 60.3529 149.443C60.0908 148.283 59.874 147.093 59.7036 145.876C59.5709 144.926 59.4757 143.955 59.4016 142.974C55.0081 144.845 46.4222 149.823 43.606 160.903C43.4677 161.45 43.3494 162.004 43.2432 162.563C43.21 162.738 43.1835 162.915 43.1536 163.091C43.0861 163.485 43.0242 163.88 42.9733 164.277C42.9467 164.476 42.9235 164.674 42.9014 164.873C42.8571 165.277 42.8217 165.682 42.793 166.088C42.7808 166.264 42.7653 166.439 42.7565 166.615C42.7255 167.172 42.7067 167.732 42.7045 168.293C42.7045 168.313 42.7034 168.332 42.7034 168.352C42.7023 168.965 42.7189 169.581 42.7521 170.196C42.7565 170.281 42.7642 170.366 42.7687 170.453C42.8007 170.975 42.8428 171.497 42.897 172.019C42.9091 172.139 42.9235 172.26 42.9379 172.38C42.9965 172.89 43.0651 173.4 43.1458 173.908C43.1613 174.002 43.1757 174.097 43.1912 174.192C43.4213 175.571 43.7321 176.937 44.1192 178.27C44.1192 178.271 44.1192 178.271 44.1192 178.271ZM76.9892 166.111C69.3779 159.599 66.9035 146.988 67.2718 141.105C67.6402 135.223 68.931 122.461 80.1771 116.374C85.7034 113.384 91.0272 112.624 95.0137 112.624C99.1396 112.624 101.832 113.438 101.832 113.438C101.674 112.507 101.551 111.623 101.456 110.808C101.305 109.505 101.229 108.382 101.198 107.524C99.6496 106.949 97.0336 106.49 93.8788 106.49C86.356 106.49 75.7714 109.099 69.3071 118.969C65.5783 124.662 63.5806 132.081 63.6802 139.859C63.7001 141.398 63.8019 142.907 63.9799 144.377C65.1237 153.808 69.4255 161.642 75.6132 165.366C76.0667 165.608 76.5246 165.856 76.9892 166.111ZM112.399 126.521C108.302 120.81 106.908 104.018 115.02 93.8747C120.661 86.8217 128.797 83.6924 137.137 83.6924C140.79 83.6924 144.482 84.2933 148.02 85.4275C159.634 89.152 165.165 97.1942 168.813 104.787C168.236 97.2838 163.56 91.406 159.231 87.5044C156.553 85.09 154.006 83.4313 152.648 82.6169L152.629 82.6058C148.607 80.3297 142.129 78.2982 135.118 78.2982C129.662 78.2982 123.886 79.5297 118.697 82.8327C108.019 89.63 106.53 99.9804 105.729 105.541L105.609 106.341C105.552 107.095 105.674 110.277 106.429 114.027C107.312 118.405 109.058 123.557 112.399 126.521ZM240.274 125.669H240.275C240.893 122.094 241.133 117.795 240.4 113.308C238.69 102.843 232.4 94.8639 221.706 89.5891L221.56 89.5172C221.061 89.2848 219.664 88.8212 217.762 88.3874C215.521 87.8751 212.583 87.4048 209.595 87.4048C207.812 87.4048 206.011 87.573 204.33 87.9979C211.417 88.3918 222.316 91.1084 231.349 100.514C240.382 109.919 240.274 125.669 240.274 125.669ZM219.506 84.2501C215.688 73.0178 204.684 63.1344 186.7 63.1344C185.561 63.1344 184.393 63.1742 183.198 63.2561C168.486 64.2597 161.879 68.5298 158.926 71.9346C156.599 74.6201 155.962 77.3499 155.915 79.4368C156.717 79.9491 157.695 80.6108 158.78 81.423C159.437 81.9154 160.132 82.4609 160.847 83.0595C161.254 79.0694 161.764 75.3526 167.193 72.2975C170.773 70.2836 178.357 68.4733 186.033 68.4733C191.008 68.4733 196.022 69.2335 200.008 71.191C210.148 76.1703 213.369 83.8164 213.369 83.8164C213.847 83.7788 214.345 83.7577 214.865 83.7577C215.338 83.7577 215.832 83.7754 216.342 83.812C217.329 83.8817 218.38 84.02 219.506 84.2501Z" fill="#F59ACF"/>
<path d="M186.833 219.845C187.291 219.016 187.69 218.159 188.046 217.284C188.913 215.153 189.49 212.901 189.811 210.595C189.811 210.595 186.734 216.883 186.833 219.845Z" fill="#7192E4"/>
<path d="M191.235 220.081C215.696 220.081 220.472 196.966 220.472 196.966C214.328 209.256 199.905 210.748 193.266 210.748C191.144 210.748 189.816 210.595 189.811 210.595C189.49 212.901 188.914 215.153 188.046 217.284C187.69 218.159 187.291 219.016 186.833 219.845C188.368 220.006 189.833 220.081 191.235 220.081Z" fill="black" fill-opacity="0.27"/>
<path d="M147.93 234.226C150.324 234.226 153.2 233.961 156.648 233.304C155.514 233.409 154.393 233.459 153.296 233.459C147.607 233.459 142.523 232.112 139.004 230.135C139.554 229.37 139.966 228.535 140.268 227.677C141.193 225.049 141.111 222.229 140.966 220.714L140.757 221.144C140.55 222.827 139.81 225.635 137.299 228.285L136.48 229.977C136.48 229.977 138.318 234.226 147.93 234.226Z" fill="#7192E4"/>
<path d="M153.299 233.459C154.396 233.459 155.516 233.409 156.651 233.304C156.666 233.301 156.681 233.299 156.696 233.295C174.035 229.975 184.709 215.526 182.496 205.08C180.403 213.003 171.065 222.046 159.49 223.891C157.693 224.177 156.009 224.298 154.445 224.298C145.954 224.298 141.002 220.738 140.968 220.714C141.113 222.229 141.196 225.049 140.271 227.677C139.969 228.535 139.557 229.37 139.007 230.135C142.526 232.112 147.61 233.459 153.299 233.459Z" fill="black" fill-opacity="0.27"/>
<path d="M229.587 188.207C229.588 188.206 229.591 188.204 229.592 188.203C229.584 187.799 229.562 187.411 229.528 187.035C228.97 180.855 225.088 178.542 225.088 178.542L229.587 188.207Z" fill="#7192E4"/>
<path d="M229.593 188.203C240.928 181.073 245.558 167.199 243.331 159.806C238.63 175.574 225.089 178.542 225.089 178.542C225.089 178.542 228.971 180.855 229.529 187.035C229.563 187.411 229.585 187.799 229.593 188.203Z" fill="black" fill-opacity="0.27"/>
<path d="M175.063 133.341C174.917 133.224 174.772 133.105 174.623 132.99C174.803 132.946 174.983 132.896 175.162 132.849C175.127 133.011 175.091 133.175 175.063 133.341Z" fill="#F553B1"/>
<path d="M28.2785 132.815C26.2122 135.501 24.3174 138.758 22.7058 142.674C21.2733 146.153 20.4128 149.652 19.946 153.027C17.5158 154.031 14.8865 155.613 13.1012 156.808C8.93105 151.025 5.283 138.554 8.21316 126.582C10.9785 115.289 18.8929 106.582 30.6069 101.857C33.3866 109.709 39.6596 112.866 39.6596 112.866C36.8599 108.988 35.3191 103.525 34.6156 100.4L34.6587 100.385L34.2152 98.4512C34.0725 97.8172 30.8248 82.6844 42.3796 72.3816C54.1444 61.8929 68.9822 60.1147 77.9861 63.6235C75.421 72.7932 81.7337 80.3939 81.7337 80.3939C79.1077 72.0364 81.4251 65.9405 82.6242 63.587C90.1503 52.9854 99.3235 49.8451 105.706 49.0827C114.347 48.0481 123.821 50.7867 129.855 56.0549C130.833 56.9744 133.933 60.2652 134.772 65.6318C134.772 65.6318 137.303 60.3792 134.474 55.1121C150.131 46.3108 165.163 52.0183 171.732 57.5144C164.39 59.3003 155.676 63.8736 150.257 72.2455C137.261 68.3539 124.655 69.685 114.59 76.0497C113.24 76.904 111.968 77.8412 110.762 78.8404C107.007 74.0635 106.655 64.5994 108.08 62.1662C108.08 62.1662 102.161 64.5054 103.608 73.0665C104.341 76.3264 105.642 79.4976 107.533 81.8457C102.939 86.6978 99.8257 92.694 98.5968 99.2136C90.5718 98.4446 83.3022 99.498 77.1034 102.29C75.5936 102.404 72.0849 102.143 69.4158 97.9544C67.3351 94.6891 63.1594 86.2264 69.2952 78.1886C69.2952 78.1886 61.2127 80.135 61.4007 89.7485C61.2624 89.6765 61.1264 89.5958 60.987 89.5271C52.9376 85.9442 49.1657 92.756 49.1657 92.756C52.2872 91.3086 59.3001 91.9814 63.1539 96.7616C63.7236 98.0639 64.4072 99.3564 65.218 100.63C65.2611 100.697 65.3076 100.757 65.3507 100.824C66.9314 104.917 66.8152 108.191 66.2445 110.163C59.9782 117.03 56.1831 126.763 55.6189 137.623C43.3231 143.557 36.5535 152.623 35.4894 164.588C34.8711 171.551 36.2338 179.2 39.539 187.329C38.3532 191.854 37.965 198.705 38.9328 203.79C29.3128 202.925 15.2559 197.927 10.8989 186.409C7.03513 176.193 8.27401 166.655 14.1277 161.5C15.038 160.795 17.2702 159.308 19.519 158.123C19.5013 158.689 19.4913 159.251 19.4913 159.805C19.4913 172.253 27.325 176.463 27.325 176.463C27.262 176.302 21.0112 159.869 27.3084 144.57C33.0515 130.619 42.5333 126.426 49.4998 127.149C49.4998 127.149 42.7003 121.353 32.7617 128.053C32.233 128.504 31.7109 128.988 31.1954 129.498C26.8649 127.607 23.1737 123.413 22.4138 122.509C22.4138 122.509 22.0985 128.992 28.2785 132.815Z" fill="#F553B1"/>
<path d="M10.0893 184.037C7.25646 174.734 8.72986 166.253 14.1278 161.5C15.0382 160.795 17.2703 159.308 19.5191 158.123C19.5014 158.689 19.4915 159.251 19.4915 159.804C19.4915 161.111 19.5777 162.327 19.7326 163.457C19.7348 163.457 19.7359 163.456 19.7359 163.456L21.1816 155.604C21.1816 155.604 12.5637 158.975 8.55398 163.954C4.54644 168.93 6.75317 178.327 10.0893 184.037Z" fill="#B3D2FF"/>
<path d="M10.0967 184.048C6.82257 166.843 19.521 163.511 19.7334 163.457C19.5785 162.327 19.4923 161.111 19.4923 159.804C19.4923 159.251 19.5022 158.689 19.5199 158.123C17.2711 159.308 15.039 160.795 14.1286 161.5C8.73065 166.253 7.25726 174.734 10.0901 184.037C10.0923 184.041 10.0945 184.045 10.0967 184.048Z" fill="#F59ACF"/>
<path d="M27.3253 176.463C27.2622 176.302 21.0114 159.869 27.3087 144.57C32.6436 131.61 41.2062 127.071 47.9802 127.071C48.4978 127.071 49.0045 127.098 49.5 127.149L48.4005 126.775C47.7611 126.625 47.0621 126.562 46.3342 126.562C42.0834 126.562 36.8524 128.73 36.8524 128.73C36.8524 128.73 34.3028 130.006 30.4921 134.735L22.7547 152.079C21.5921 161.107 23.1949 171.342 27.3253 176.463Z" fill="#B3D2FF"/>
<path d="M27.3253 176.463C24.4028 143.378 38.1433 132.419 49.5 127.149C49.0045 127.098 48.4978 127.071 47.9802 127.071C41.2062 127.071 32.6436 131.61 27.3087 144.57C21.0114 159.869 27.2622 176.302 27.3253 176.463Z" fill="#F59ACF"/>
<path d="M11.9656 159.528L14.5463 158.422C14.5463 158.422 14.1027 157.763 13.4622 156.569C13.3395 156.65 13.2189 156.729 13.1027 156.808C8.93261 151.025 5.28456 138.554 8.21472 126.582C10.9801 115.289 18.8945 106.582 30.6085 101.857C31.2589 103.696 32.1018 105.277 33.011 106.621C33.0132 106.621 33.0132 106.621 33.0132 106.621C33.0132 106.621 34.6415 106.969 39.6611 112.866C36.8615 108.988 35.3206 103.525 34.6171 100.4L34.6603 100.385L34.2167 98.4512C34.074 97.8172 30.8264 82.6844 42.3811 72.3816C50.5909 65.0631 60.295 61.9847 68.4705 61.9847C72.0123 61.9847 75.2666 62.5623 77.9877 63.6235C77.5065 65.3419 77.3384 67.0072 77.3815 68.5763V68.5774C77.3848 68.709 77.3904 68.8418 77.397 68.9735C77.6945 71.8814 81.7353 80.3939 81.7353 80.3939C79.1093 72.0364 81.4266 65.9405 82.6257 63.587C90.1519 52.9854 99.3251 49.8451 105.707 49.0827C106.92 48.9377 108.15 48.8669 109.383 48.8669C116.94 48.8669 124.669 51.5259 129.857 56.0549C130.834 56.9744 133.935 60.2652 134.773 65.6318L135.805 60.1058C135.807 60.1058 135.807 60.1059 135.808 60.1047C135.755 58.5656 135.404 56.8394 134.476 55.1121C140.337 51.8169 146.115 50.5555 151.39 50.5555C160.205 50.5555 167.624 54.0753 171.734 57.5144C169.439 58.0721 167.011 58.903 164.59 60.0361L175.306 58.6961C169.031 50.5477 160.554 48.1444 152.737 48.1444C141.493 48.1444 131.613 53.1182 131.613 53.1182C131.613 53.1182 117.787 45.741 103.569 45.741C89.351 45.741 80.7309 60.679 80.7309 60.679C80.7309 60.679 79.7995 60.596 78.0784 60.596C73.0388 60.596 61.2352 61.3131 46.2559 66.9497C26.1607 74.5105 30.77 99.4073 30.77 99.4073C30.77 99.4073 13.4401 105.678 6.06661 124.304C-1.30801 142.931 11.9656 159.528 11.9656 159.528Z" fill="#B3D2FF"/>
<path d="M13.1012 156.808C13.2173 156.729 13.3379 156.65 13.4607 156.569C10.9608 151.904 5.46773 139.066 11.7794 125.411C19.6407 108.404 32.7882 106.649 33.0095 106.621C32.1002 105.277 31.2573 103.696 30.6069 101.857C18.8929 106.582 10.9785 115.289 8.21316 126.582C5.283 138.554 8.93105 151.025 13.1012 156.808ZM39.6596 112.866C33.2462 98.5419 36.8522 81.7029 47.1758 74.3268C54.1787 69.3231 61.9659 67.4166 68.7012 67.4166C71.8957 67.4166 74.8547 67.8448 77.38 68.5763C77.3368 67.0072 77.505 65.3419 77.9861 63.6235C75.265 62.5623 72.0108 61.9847 68.4689 61.9847C60.2935 61.9847 50.5893 65.0631 42.3796 72.3816C30.8248 82.6844 34.0725 97.8172 34.2152 98.4512L34.6587 100.385L34.6156 100.4C35.3191 103.525 36.8599 108.988 39.6596 112.866ZM81.7337 80.3939C81.7337 80.3939 80.5457 72.0242 87.5045 63.1344C92.7243 56.4665 102.094 53.1801 111.062 53.1801C114.048 53.1801 116.992 53.5453 119.721 54.2711C130.644 57.1758 134.772 65.6318 134.772 65.6318C133.933 60.2652 130.833 56.9744 129.855 56.0549C124.667 51.5259 116.939 48.8669 109.382 48.8669C108.148 48.8669 106.918 48.9377 105.706 49.0827C99.3235 49.8451 90.1503 52.9854 82.6242 63.5869C81.4251 65.9405 79.1077 72.0363 81.7337 80.3939ZM77.3955 68.9735C77.3888 68.8418 77.3833 68.709 77.38 68.5774C77.3744 68.6935 77.38 68.8263 77.3955 68.9735ZM135.806 60.1047C140.686 57.1946 145.528 56.2264 149.809 56.2264C158.302 56.2264 164.589 60.0361 164.589 60.0361C167.009 58.903 169.437 58.0721 171.732 57.5144C167.622 54.0753 160.203 50.5555 151.388 50.5555C146.113 50.5555 140.336 51.8169 134.474 55.1121C135.402 56.8394 135.753 58.5656 135.806 60.1047Z" fill="#F59ACF"/>
<path d="M116.95 235C128.18 234.707 134.141 231.62 137.3 228.285L140.757 221.144C140.875 220.192 140.821 219.6 140.821 219.6C140.152 221.961 138.77 224.038 137.424 225.611C136.106 227.153 134.829 228.207 134.287 228.578C128.213 232.264 122.35 234.277 116.95 235Z" fill="#7192E4"/>
<path d="M115.795 235.015C116.176 235.015 116.558 235.01 116.949 235C122.349 234.277 128.212 232.264 134.285 228.578C134.827 228.207 136.105 227.153 137.422 225.611C138.769 224.038 140.151 221.961 140.819 219.6C140.819 219.6 135.482 227.441 121.794 228.686C120.746 228.782 119.695 228.827 118.649 228.827C106.019 228.828 93.7587 222.098 89.1627 213.54C89.1627 213.54 90.9723 235.014 115.795 235.015Z" fill="black" fill-opacity="0.27"/>
<path d="M137.299 228.285C139.81 225.635 140.55 222.828 140.757 221.144L137.299 228.285Z" fill="#6576CF"/>
<path d="M88.3294 230.071C91.2828 230.071 91.1013 229.377 91.1013 229.377C91.1013 229.377 84.741 217.232 84.1957 212.76C84.1935 212.767 84.1902 212.774 84.188 212.78C83.3993 215.888 83.1814 219.709 84.7787 223.64C84.9922 224.146 85.2244 224.637 85.4678 225.118C85.9301 226.035 86.4467 226.905 87.0175 227.722C84.5253 228.069 81.9591 228.259 79.3851 228.259C76.747 228.259 74.0989 228.059 71.5094 227.622C80.8828 229.553 85.7764 230.071 88.3294 230.071Z" fill="#7192E4"/>
<path d="M79.3833 228.259C81.9573 228.259 84.5235 228.069 87.0156 227.722C86.4449 226.905 85.9283 226.035 85.4659 225.118C85.2226 224.637 84.9903 224.147 84.7768 223.64C83.1796 219.709 83.3975 215.889 84.1861 212.78C82.84 216.083 77.3104 219.331 70.7167 219.331C63.5644 219.331 55.1589 215.509 49.4811 203.79C49.4811 203.79 52.5229 223.707 71.4401 227.609C71.4622 227.613 71.4854 227.618 71.5076 227.622C74.097 228.059 76.7451 228.259 79.3833 228.259Z" fill="black" fill-opacity="0.27"/>
<path d="M186.83 196.966L197.703 192.585C197.703 192.585 201.845 190.38 201.71 183.253C201.232 185.642 198.883 193.208 188.404 194.612C187.204 191.227 185.482 188.832 183.743 187.144C182.83 186.557 181.905 185.84 180.973 184.979C184.43 189.682 186.83 196.966 186.83 196.966Z" fill="#7192E4"/>
<path d="M188.403 194.612C198.883 193.208 201.231 185.642 201.709 183.253C199.586 186.298 195.632 189.388 190.814 189.388C188.607 189.388 186.22 188.741 183.742 187.144C185.481 188.832 187.203 191.228 188.403 194.612Z" fill="black" fill-opacity="0.27"/>
<path d="M41.1855 206.278V193C41.1855 193 40.1922 193.176 38.5651 193.265C38.2543 196.801 38.3328 200.635 38.9335 203.79C35.5785 203.488 31.6816 202.683 27.8466 201.274C29.164 201.803 30.5887 202.251 32.1318 202.604L41.1855 206.278Z" fill="#7192E4"/>
<path d="M38.9346 203.79C38.3339 200.635 38.2554 196.801 38.5662 193.265C38.0131 193.294 37.3882 193.316 36.7035 193.316C29.5888 193.316 16.0829 191.136 11.874 175.296C11.874 175.296 11.2855 194.626 27.8477 201.274C31.6827 202.683 35.5797 203.488 38.9346 203.79Z" fill="black" fill-opacity="0.27"/>
<path d="M17.7108 155.873C19.5459 155.873 21.1841 155.604 21.1841 155.604L22.757 152.079C23.3311 147.622 24.5799 143.457 26.53 140.349C27.9503 138.083 29.2865 136.236 30.4944 134.735L31.6924 132.05L26.53 128.545L22.4163 122.509C22.4163 122.509 22.5723 123.484 22.6962 125.019C23.1961 127.253 24.5633 130.515 28.281 132.815C26.2148 135.501 24.32 138.758 22.7083 142.674C21.2759 146.153 20.4153 149.652 19.9485 153.027C18.2783 153.716 16.5129 154.68 14.993 155.604C15.8282 155.806 16.7938 155.873 17.7108 155.873Z" fill="#7192E4"/>
<path d="M14.9923 155.604C16.5121 154.68 18.2775 153.716 19.9478 153.027C20.4145 149.652 21.2751 146.153 22.7076 142.674C24.3192 138.758 26.214 135.501 28.2803 132.815C24.5625 130.515 23.1954 127.253 22.6954 125.019C23.0449 129.331 23.1378 138.072 18.7874 142.091C17.4412 143.334 16.23 143.814 15.1615 143.814C11.5466 143.814 9.56885 138.32 9.56885 138.32C9.56885 138.32 10.2668 147.881 14.9923 155.604Z" fill="black" fill-opacity="0.27"/>
<path d="M22.7567 152.079L30.4941 134.735C29.2862 136.236 27.95 138.083 26.5298 140.349C24.5796 143.457 23.3308 147.622 22.7567 152.079Z" fill="#9AAAE4"/>
<path d="M64.4834 196.41C65.0077 196.41 65.5464 196.392 66.1006 196.354C65.6128 196.386 65.1349 196.403 64.667 196.403C60.6539 196.403 57.3909 195.234 54.8014 193.625C57.3068 195.334 60.4759 196.41 64.4834 196.41Z" fill="#7192E4"/>
<path d="M64.6659 196.403C65.1338 196.403 65.6117 196.386 66.0995 196.354C66.2134 196.346 66.3262 196.337 66.4424 196.327C56.7626 191.987 48.0982 187.376 45.3328 170.963C45.3328 170.963 45.116 187.023 54.8003 193.625C57.3898 195.234 60.6528 196.403 64.6659 196.403Z" fill="black" fill-opacity="0.27"/>
<path d="M94.6802 191.873C96.1535 191.873 97.7962 191.627 99.6224 191.044C105.458 189.136 109.989 185.019 112.774 179.231C113.592 180.572 114.52 181.835 115.559 183.009C120.318 186.933 124.818 187.959 128.22 187.959C128.93 187.959 129.591 187.915 130.197 187.843C130.203 187.84 130.209 187.839 130.215 187.837C121.104 185.347 116.099 180.696 112.623 175.296C109.147 169.897 110.226 155.873 110.226 155.873C110.226 155.873 107.397 156.621 103.53 156.621C98.8492 156.621 92.6471 155.524 88.1031 150.677L82.3832 141.105C82.3832 141.105 82.3832 141.105 82.3832 141.106C82.5724 142.527 82.9418 144.086 83.5447 145.791C85.1331 149.479 87.3498 152.653 89.7921 154.771C93.6249 158.094 98.357 159.799 103.071 159.799C104.955 159.799 106.832 159.517 108.652 158.968C108.118 164.238 108.652 169.238 110.182 173.69C108.205 180.306 104.003 184.956 98.2497 186.836C96.4655 187.419 94.6005 187.702 92.7798 187.702C89.3541 187.702 86.0844 186.7 83.7958 184.813C86.1729 187.68 87.9438 189.655 90.3098 191.057C91.5598 191.556 93.0099 191.873 94.6802 191.873Z" fill="#7192E4"/>
<path d="M98.3933 193.452C104.303 193.453 110.301 188.23 112.81 187.56C113.237 187.447 113.847 187.401 114.591 187.401C116.11 187.401 118.182 187.591 120.365 187.783C122.548 187.973 124.842 188.165 126.804 188.165C128.134 188.165 129.311 188.077 130.199 187.843C129.593 187.915 128.932 187.959 128.223 187.959C124.82 187.959 120.32 186.933 115.561 183.009C114.522 181.835 113.594 180.572 112.776 179.231C109.991 185.019 105.46 189.136 99.6245 191.044C97.7982 191.627 96.1556 191.873 94.6822 191.873C93.012 191.873 91.5618 191.556 90.3119 191.057C91.9722 192.042 93.9256 192.745 96.5859 193.278C97.1843 193.397 97.7894 193.452 98.3933 193.452ZM92.7819 187.702C94.6026 187.702 96.4676 187.419 98.2518 186.836C104.005 184.956 108.207 180.306 110.184 173.69C108.654 169.238 108.12 164.238 108.654 158.968C106.834 159.517 104.957 159.799 103.073 159.799C98.359 159.799 93.627 158.094 89.7942 154.771C87.3519 152.653 85.1352 149.48 83.5468 145.792C82.9439 144.086 82.5745 142.527 82.3853 141.107C82.392 141.226 83.2636 155.842 96.2176 163.032C108.224 169.698 103.288 185.148 87.8651 185.148C86.5809 185.148 85.2248 185.041 83.7978 184.813C86.0864 186.7 89.3562 187.702 92.7819 187.702Z" fill="black" fill-opacity="0.27"/>
<path d="M122.326 209.298C118.614 208.034 114.708 205.666 110.958 201.557C113.142 205.845 117.487 208.291 122.326 209.298Z" fill="#7192E4"/>
<path d="M127.797 209.845C132.845 209.845 137.771 208.516 140.833 206.278C148.026 201.024 154.025 196.772 154.287 183.253C152.309 188.86 148.032 196.913 138.985 200.839C133.094 203.396 127.443 204.363 122.687 204.363C117.323 204.363 113.099 203.131 110.957 201.557C114.707 205.666 118.613 208.034 122.325 209.298C124.109 209.669 125.961 209.845 127.797 209.845Z" fill="black" fill-opacity="0.27"/>
<path d="M212.244 162.46C212.513 162.46 212.555 162.3 212.328 161.928C212.327 161.926 212.326 161.925 212.324 161.922C210.502 159.527 207.568 156.986 202.845 154.976C199.574 153.876 196.03 153.22 192.335 153.22C192.068 153.22 191.8 153.224 191.53 153.231C190.651 153.254 189.721 153.322 188.759 153.438C187.532 148.644 184.636 143.136 180.166 138.17C179.214 134.056 180.4 131.088 183.792 129.117L183.916 129.044L183.892 129.006C186.237 127.555 188.492 125.798 190.53 123.777C190.867 123.409 191.078 123.216 191.078 123.216C191.074 123.151 191.072 123.086 191.071 123.019C189.79 123.986 188.64 125.085 187.672 126.328C187.471 122.598 194.661 114.92 194.661 114.92L186.653 120.688C185.007 122.264 183.22 123.626 181.386 124.758L181.385 124.757L181.291 124.812C181.171 124.882 181.063 124.957 180.947 125.029C180.471 125.312 179.992 125.579 179.513 125.831L178.823 126.329C178.696 126.421 178.568 126.513 178.442 126.602L169.772 132.849C169.772 132.849 184.152 145.42 188.024 155.873C188.745 155.762 189.489 155.71 190.252 155.708C191.655 155.542 192.947 155.471 194.129 155.471C201.197 155.471 204.339 158.007 204.339 158.007C204.339 158.007 206.133 159.116 208.324 160.953C210.294 161.829 211.713 162.46 212.244 162.46ZM175.159 132.849C175.124 133.011 175.089 133.175 175.06 133.341C174.914 133.224 174.769 133.105 174.621 132.99C174.8 132.946 174.98 132.896 175.159 132.849Z" fill="#7192E4"/>
<path d="M212.326 161.922C205.444 150.678 196.216 154.815 190.135 146.333C181.832 134.753 188.487 126.015 190.532 123.777C188.493 125.798 186.239 127.555 183.894 129.006L183.917 129.044L183.793 129.117C180.402 131.088 179.216 134.056 180.167 138.17C184.637 143.136 187.533 148.644 188.761 153.438C189.722 153.323 190.653 153.254 191.532 153.231C191.802 153.224 192.069 153.22 192.337 153.22C196.032 153.22 199.576 153.876 202.847 154.976C207.57 156.986 210.503 159.527 212.326 161.922ZM179.515 125.831C179.994 125.579 180.473 125.312 180.948 125.029C181.065 124.957 181.173 124.882 181.292 124.812L181.386 124.757L181.387 124.758C183.221 123.626 185.009 122.264 186.655 120.688L179.515 125.831Z" fill="black" fill-opacity="0.27"/>
<path d="M187.674 126.328C188.641 125.085 189.792 123.986 191.073 123.019C191.01 119.328 194.662 114.92 194.662 114.92C194.662 114.92 187.472 122.598 187.674 126.328Z" fill="#9AAAE4"/>
<path d="M208.324 160.953C206.134 159.116 204.34 158.008 204.34 158.008C204.34 158.008 201.197 155.471 194.129 155.471C192.948 155.471 191.656 155.542 190.252 155.708C190.274 155.708 190.296 155.708 190.319 155.708C194.795 155.708 199.841 157.396 203.986 159.084C205.598 159.74 207.072 160.397 208.324 160.953Z" fill="#9AAAE4"/>
<path d="M175.063 133.341C175.091 133.175 175.127 133.011 175.162 132.849C174.983 132.896 174.803 132.946 174.623 132.99C174.772 133.105 174.917 133.224 175.063 133.341Z" fill="black" fill-opacity="0.27"/>
<path d="M218.203 147.072C221.186 147.072 224.482 146.18 227.847 143.668C229.441 142.479 230.817 141.197 231.998 139.852C228.742 142.262 224.117 144.423 218.007 144.423C214.361 144.423 210.187 143.655 205.457 141.713C205.457 141.713 210.892 147.072 218.203 147.072Z" fill="#7192E4"/>
<path d="M218.005 144.423C224.116 144.423 228.74 142.262 231.997 139.852C239.419 131.392 239.156 120.336 237.247 112.778C236.736 140.678 209.953 141.719 205.954 141.719C205.631 141.719 205.456 141.713 205.456 141.713C210.186 143.655 214.359 144.423 218.005 144.423Z" fill="black" fill-opacity="0.27"/>
<path d="M161.543 190.72C163.045 180.961 160.85 171.27 155.523 164.132C151.009 158.578 145.712 157.323 141.846 157.323C138.656 157.323 136.44 158.177 136.44 158.177C136.476 158.181 136.512 158.187 136.547 158.192L148.206 159.806C148.206 159.806 160.097 178.34 161.543 190.72ZM169.109 172.484C172.038 165.063 176.643 161.264 180.425 159.325C182.316 158.109 184.367 157.129 186.554 156.475C185.817 154.357 183.622 148.803 180.032 145.997L180.284 146.619C180.284 146.619 180.266 146.599 180.231 146.561C182.003 149.345 183.214 152.079 183.869 154.446C182.983 154.709 182.083 155.022 181.172 155.395C169.109 161.372 169.109 172.484 169.109 172.484Z" fill="#7192E4"/>
<path d="M161.541 190.72C163.816 178.757 166.455 176.957 169.107 172.484C169.107 172.484 169.107 161.372 181.17 155.395C182.081 155.022 182.981 154.709 183.867 154.446C183.212 152.079 182.001 149.345 180.229 146.561C180.153 146.474 179.989 146.297 179.738 146.046C180.845 154.759 175.118 157.958 167.182 157.958C163.24 157.958 158.752 157.169 154.288 155.873C151.039 154.93 148.324 154.572 146.07 154.572C138.925 154.572 136.438 158.177 136.438 158.177C136.438 158.177 138.654 157.323 141.844 157.323C145.71 157.323 151.007 158.578 155.521 164.132C160.848 171.27 163.043 180.961 161.541 190.72ZM136.546 158.192C136.51 158.187 136.474 158.181 136.438 158.177L136.546 158.192Z" fill="black" fill-opacity="0.27"/>
<path d="M180.424 159.325C183.995 157.495 186.832 157.323 186.832 157.323C186.832 157.323 186.739 157.007 186.553 156.475C184.366 157.129 182.316 158.109 180.424 159.325Z" fill="#9AAAE4"/>
<path d="M180.282 146.619L180.03 145.997C179.921 145.912 179.81 145.829 179.698 145.748C179.881 146.019 180.058 146.289 180.229 146.561C180.265 146.599 180.282 146.619 180.282 146.619Z" fill="#9AAAE4"/>
<path d="M180.229 146.561C180.057 146.289 179.88 146.02 179.698 145.748C179.712 145.849 179.725 145.948 179.737 146.046C179.988 146.297 180.152 146.474 180.229 146.561Z" fill="#D67ABA"/>
<path d="M168.306 130.392C170.96 130.392 174.363 129.495 178.444 126.602L178.824 126.329C178.824 126.328 178.824 126.328 178.824 126.328C179.03 126.177 179.232 126.026 179.433 125.874C175.912 127.709 172.352 128.685 169.412 128.685C168.817 128.685 168.248 128.644 167.71 128.563C162.89 126.085 157.308 124.357 150.983 123.851C150.3 123.796 149.622 123.758 148.949 123.732C149.572 119.109 149.027 112.995 146.677 107.466C146.589 107.279 146.552 107.176 146.552 107.176L147.282 125.042L161.635 127.993C161.635 127.993 163.967 130.392 168.306 130.392Z" fill="#7192E4"/>
<path d="M169.412 128.685C172.352 128.685 175.912 127.709 179.433 125.874C189.918 117.876 192.606 107.162 191.125 97.9322C189.99 110.106 182.34 119.327 170.012 119.327C168.441 119.327 166.792 119.176 165.073 118.864C151.495 116.395 147.399 109.02 146.677 107.466C149.027 112.995 149.573 119.109 148.949 123.732C149.622 123.758 150.3 123.796 150.983 123.851C157.308 124.357 162.89 126.085 167.71 128.563C168.249 128.644 168.817 128.685 169.412 128.685Z" fill="black" fill-opacity="0.27"/>
<path d="M178.443 126.602C178.569 126.513 178.696 126.421 178.823 126.328L178.443 126.602Z" fill="#6576CF"/>
<path d="M128.845 130.457C129.448 130.457 130.097 130.433 130.773 130.374C133.154 129.143 135.71 128.167 138.398 127.511C138.804 127.158 139.186 126.765 139.538 126.328C140.071 125.666 140.48 124.931 140.789 124.148C137.95 124.564 135.23 125.264 132.649 126.243C128.943 129.323 125.129 130.156 125.129 130.156C125.129 130.156 126.684 130.457 128.845 130.457Z" fill="#7192E4"/>
<path d="M132.651 126.243C135.232 125.264 137.952 124.564 140.791 124.148C143.145 118.157 139.54 109.366 139.54 109.366C139.814 118.041 136.285 123.222 132.651 126.243Z" fill="black" fill-opacity="0.27"/>
<path d="M130.772 130.374C133.296 130.151 136.194 129.422 138.396 127.511C135.709 128.167 133.153 129.143 130.772 130.374Z" fill="#9AAAE4"/>
<path d="M105.705 155.277C108.215 155.277 110.957 154.799 110.957 154.799L117.69 136.918C117.69 136.918 117.147 137.719 116.183 138.847C113.117 143.052 110.883 147.936 109.619 153.23C107.564 154.291 105.319 154.813 103.065 154.813C102.875 154.813 102.685 154.809 102.494 154.802C103.261 155.157 104.454 155.277 105.705 155.277Z" fill="#7192E4"/>
<path d="M103.066 154.813C105.32 154.813 107.565 154.291 109.62 153.23C110.884 147.936 113.117 143.052 116.184 138.847C114.25 141.105 110.627 144.676 106.299 145.748C104.577 146.175 102.813 146.424 101.089 146.424C96.3152 146.424 91.8497 144.517 89.4438 139.191C89.4438 139.191 90.0975 151.314 102.49 154.799C102.492 154.8 102.493 154.801 102.495 154.802C102.685 154.809 102.876 154.813 103.066 154.813Z" fill="black" fill-opacity="0.27"/>
<path d="M73.9084 108.444L75.3774 108.149C80.6979 104.883 87.8812 102.812 97.5964 102.812C98.8186 102.812 100.074 102.844 101.377 102.912C101.377 102.912 104.686 83.3062 123.431 76.8275C127.167 75.1899 131.397 74.2173 136.157 74.2173C140.667 74.2173 145.653 75.0881 151.153 77.0931C152.071 75.97 153.357 74.6322 154.953 73.2103L160.74 65.1051L160.275 62.4107C160.275 62.4107 159.472 63.0536 158.092 63.9222C155.15 66.1253 152.436 68.8783 150.257 72.2454C145.382 70.7859 140.562 70.0612 135.91 70.0612C133.387 70.0612 130.913 70.2747 128.507 70.6996C126.276 71.7154 123.596 72.553 120.718 72.916C118.591 73.7702 116.543 74.8148 114.591 76.0497C113.24 76.9039 111.968 77.8411 110.763 78.8403C109.061 76.6759 108.059 73.5511 107.604 70.5525C107.082 71.3215 106.38 71.566 105.7 71.566C104.512 71.566 103.387 70.8213 103.385 70.8202C103.386 70.828 103.424 71.1854 103.443 71.8106C103.481 72.2134 103.535 72.6316 103.608 73.0665C104.342 76.3263 105.642 79.4976 107.534 81.8456C102.94 86.6977 99.8263 92.694 98.5974 99.2136C96.8962 99.0509 95.2281 98.969 93.5988 98.969C87.5383 98.969 81.9888 100.09 77.1041 102.29C76.9503 102.302 76.7755 102.31 76.5831 102.31C74.8874 102.31 71.8134 101.717 69.4164 97.9543C68.8633 97.0857 68.1609 95.8486 67.5448 94.3504C64.3215 90.7343 63.3946 84.4459 69.2958 78.1886C69.2958 78.1886 61.2133 80.1349 61.4013 89.7484C61.2631 89.6765 61.127 89.5957 60.9876 89.5271C59.3118 88.7813 57.8208 88.4859 56.5111 88.4859C51.5302 88.4859 49.1663 92.7559 49.1663 92.7559C50.2559 91.7136 52.1883 91.2057 54.3884 91.2057C59.0961 91.2057 65.0261 93.5327 66.5338 97.9322C68.7461 104.387 73.9084 108.444 73.9084 108.444Z" fill="#7192E4"/>
<path d="M75.3756 108.149L101.375 102.912C100.072 102.844 98.8169 102.812 97.5946 102.812C87.8794 102.812 80.6962 104.883 75.3756 108.149ZM151.521 78.0149L154.951 73.2104C153.355 74.6322 152.07 75.97 151.152 77.0931C145.651 75.0881 140.665 74.2173 136.156 74.2173C131.395 74.2173 127.165 75.1899 123.43 76.8276C126.35 75.8184 129.643 75.1279 133.357 74.8801C140.09 76.1703 151.521 78.0149 151.521 78.0149Z" fill="#9AAAE4"/>
<path d="M76.5827 102.31C76.7752 102.31 76.9499 102.302 77.1037 102.29C81.9884 100.09 87.5379 98.9691 93.5984 98.9691C95.2278 98.9691 96.8958 99.051 98.597 99.2137C99.826 92.6941 102.94 86.6978 107.534 81.8457C105.642 79.4977 104.341 76.3264 103.608 73.0666C103.535 72.6317 103.481 72.2135 103.443 71.8107C103.524 74.317 103.325 81.122 99.3492 86.8671C95.8505 91.9228 84.1498 98.4513 75.6834 98.4513C72.1073 98.4513 69.1085 97.2872 67.5478 94.3549C67.5467 94.3538 67.5456 94.3516 67.5445 94.3505C68.1606 95.8487 68.863 97.0858 69.416 97.9544C71.813 101.717 74.887 102.31 76.5827 102.31ZM49.166 92.756C49.166 92.756 51.5298 88.486 56.5107 88.486C57.8204 88.486 59.3115 88.7814 60.9873 89.5272C61.1266 89.5958 61.2627 89.6766 61.401 89.7485C61.2129 80.135 69.2955 78.1887 69.2955 78.1887C63.2161 78.5682 53.7365 80.571 49.166 92.756ZM110.762 78.8404C111.968 77.8412 113.24 76.904 114.591 76.0498C116.543 74.8149 118.59 73.7703 120.718 72.9161C119.723 73.0411 118.706 73.1108 117.674 73.1108C114.344 73.1108 110.873 72.3938 107.604 70.5504C107.604 70.5515 107.603 70.5515 107.603 70.5526C108.059 73.5512 109.061 76.676 110.762 78.8404ZM150.257 72.2455C152.436 68.8784 155.149 66.1254 158.092 63.9223C155.238 65.716 149.912 68.4668 144.094 68.4668C141.026 68.4668 137.824 67.7033 134.772 65.6319C134.542 66.9564 132.107 69.0599 128.507 70.6997C130.913 70.2748 133.386 70.0613 135.909 70.0613C140.562 70.0613 145.381 70.786 150.257 72.2455Z" fill="black" fill-opacity="0.27"/>
<path d="M49.5008 127.149C49.5008 127.149 47.1425 125.138 43.1715 124.855C42.8706 124.85 42.7036 124.834 42.7036 124.834L48.4013 126.775C48.7929 126.866 49.1612 126.988 49.5008 127.149ZM57.5557 126.047C59.9616 124.851 62.2225 122.591 63.2169 118.403C63.7169 116.294 64.0299 114.378 64.1914 112.632C61.2723 116.48 59.0258 121.03 57.5557 126.047Z" fill="#7192E4"/>
<path d="M51.71 127.318C53.2807 127.318 55.472 127.081 57.5537 126.047C59.0238 121.03 61.2704 116.48 64.1894 112.632C64.8598 105.368 62.8986 101.018 60.818 97.7475C61.1863 107.523 59.5271 114.345 54.5495 119.911C50.5065 124.432 45.2159 124.856 43.3708 124.856C43.2978 124.856 43.2315 124.856 43.1695 124.855C47.1406 125.138 49.4988 127.149 49.4988 127.149C49.4988 127.149 50.3826 127.318 51.71 127.318Z" fill="black" fill-opacity="0.27"/>
<path d="M49.5 127.149C49.1604 126.988 48.7921 126.866 48.4005 126.775L49.5 127.149Z" fill="#9AAAE4"/>
<path d="M22.4136 122.509C23.1735 123.413 26.8647 127.607 31.1953 129.498C31.7107 128.988 32.2328 128.504 32.7615 128.053C42.7002 121.354 49.4996 127.149 49.4996 127.149C42.5332 126.426 33.0514 130.619 27.3083 144.57C21.011 159.869 27.2618 176.302 27.3238 176.463C27.3238 176.463 19.4912 172.254 19.4923 159.805C19.4912 159.251 19.5012 158.689 19.5188 158.123C17.2701 159.308 15.0379 160.795 14.1276 161.5C8.27387 166.655 7.03499 176.193 10.8987 186.409C15.2558 197.928 29.3126 202.925 38.9327 203.79C37.9648 198.705 38.3531 191.854 39.5388 187.329C36.2337 179.2 34.8709 171.551 35.4893 164.589C36.5534 152.623 43.3229 143.557 55.6188 137.623C56.184 126.763 59.9781 117.03 66.2443 110.163C66.8151 108.191 66.9312 104.917 65.3506 100.824C65.3074 100.757 65.261 100.698 65.2178 100.63C64.407 99.3564 63.7234 98.064 63.1538 96.7616C59.3 91.9814 52.2871 91.3087 49.1656 92.756C49.1656 92.756 52.9375 85.9454 60.9868 89.5272C61.1262 89.5958 61.2623 89.6766 61.4005 89.7485C61.2125 80.135 69.295 78.1887 69.295 78.1887C63.1593 86.2264 67.335 94.6891 69.4156 97.9544C72.0847 102.143 75.5934 102.404 77.1033 102.29C83.3021 99.4981 90.5716 98.4446 98.5966 99.2137C99.8256 92.6941 102.939 86.6978 107.533 81.8457C105.642 79.4977 104.341 76.3264 103.607 73.0666C102.161 64.5065 108.08 62.1662 108.08 62.1662C106.655 64.5995 107.007 74.0635 110.762 78.8404C111.968 77.8412 113.24 76.904 114.59 76.0498C124.655 69.6851 137.259 68.3539 150.257 72.2455C155.676 63.8736 164.39 59.3003 171.732 57.5144C165.163 52.0183 150.13 46.3109 134.474 55.1121C137.303 60.3792 134.772 65.6319 134.772 65.6319C133.933 60.2652 130.833 56.9745 129.855 56.0549C123.821 50.7868 114.347 48.0481 105.706 49.0827C99.3234 49.8451 90.1502 52.9854 82.624 63.587C81.425 65.9406 79.1076 72.0364 81.7336 80.394C81.7336 80.394 75.422 72.7933 77.986 63.6224C68.982 60.1148 54.1443 61.8929 42.3794 72.3816C30.8247 82.6845 34.0723 97.8172 34.215 98.4513L34.6586 100.385L34.6154 100.4C35.3189 103.525 36.8598 108.988 39.6594 112.866C39.6594 112.866 33.3865 109.709 30.6068 101.857C18.8928 106.582 10.9784 115.289 8.21302 126.582C5.28286 138.554 8.93091 151.025 13.101 156.808C14.8864 155.613 17.5157 154.031 19.9458 153.027C20.4126 149.652 21.2732 146.153 22.7056 142.674C24.3173 138.759 26.2121 135.501 28.2784 132.815C22.0984 128.992 22.4136 122.509 22.4136 122.509ZM42.7511 170.196C42.7544 170.281 42.7632 170.366 42.7677 170.453C42.7997 170.975 42.8418 171.497 42.896 172.019C42.9081 172.139 42.9225 172.26 42.9369 172.38C42.9955 172.89 43.0641 173.4 43.1448 173.908C43.1603 174.002 43.1736 174.097 43.1902 174.192C43.4977 176.031 43.9468 177.845 44.5319 179.595C44.5552 179.663 44.5806 179.732 44.6038 179.8C44.7731 180.295 44.9534 180.784 45.1437 181.268C45.189 181.383 45.2355 181.499 45.283 181.614C45.4633 182.059 45.6558 182.498 45.8549 182.932C45.908 183.046 45.9578 183.162 46.012 183.275C46.2465 183.768 46.492 184.254 46.7487 184.729C46.7686 184.764 46.7852 184.802 46.8051 184.837C47.5241 186.153 48.3415 187.382 49.233 188.525C49.4344 188.783 49.629 189.049 49.8392 189.297C52.8744 192.883 58.2226 197.01 66.4423 196.327C66.4423 196.327 57.6839 200.654 51.8236 196.997C50.4564 196.082 49.1623 194.996 47.9422 193.763C47.4367 193.251 46.94 192.721 46.4622 192.157C46.1524 191.791 45.8538 191.411 45.5607 191.026C44.5928 195.46 44.2355 203.279 49.4896 212.97C56.9505 226.731 73.1156 229.658 87.0154 227.722C86.4446 226.905 85.928 226.035 85.4657 225.118C85.2223 224.637 84.99 224.147 84.7766 223.64C80.9803 214.302 87.4357 205.576 87.4357 205.576C86.3406 213.289 87.2963 219.798 90.1181 224.384C90.6645 225.273 91.2818 226.088 91.9676 226.828L91.9797 226.825L92.8259 227.7C100.735 235.867 116.618 239.3 134.286 228.577C134.827 228.207 136.106 227.153 137.423 225.612C138.769 224.038 140.152 221.961 140.82 219.6C140.82 219.6 141.62 223.843 140.268 227.677C139.966 228.535 139.555 229.37 139.005 230.135C148.218 235.314 168.162 236.166 181.582 219.849C182.472 218.665 183.195 217.398 183.783 216.076C188.895 204.57 183.183 188.675 177.152 183.313C177.152 183.313 184.951 184.865 188.404 194.612C198.884 193.208 201.232 185.642 201.71 183.253C201.71 183.253 204.893 189.22 198.274 195.656C195.925 197.216 193.005 198.377 189.477 198.92C190.595 205.058 190.358 211.601 188.046 217.284C187.689 218.159 187.29 219.016 186.832 219.845C190.943 220.662 199.206 221.415 208.407 217.263C219.056 212.459 223.032 202.121 224.492 194.295C224.758 192.865 224.956 191.396 225.101 189.897C225.451 186.28 225.453 182.482 225.089 178.542C225.089 178.542 228.972 180.855 229.529 187.035C229.62 188.035 229.625 189.133 229.511 190.341C229.508 190.373 229.504 190.403 229.5 190.434C234.278 187.22 242.171 180.628 244.789 170.851C248.092 158.515 244.142 145.66 239.947 138.344C239.393 139.025 238.731 139.765 237.97 140.527C236.348 142.148 234.262 143.863 231.696 145.308C229.908 146.315 227.736 147.271 225.186 147.933C223.049 148.487 220.646 148.836 217.982 148.836C209.318 148.187 205.456 141.713 205.456 141.713C221.636 148.354 231.319 141.266 235.534 136.661C237.101 134.95 237.913 133.581 238.022 133.387C239.582 130.007 241.822 122.014 240.399 113.309C238.689 102.843 232.399 94.8639 221.705 89.5891L221.559 89.5172C221.06 89.2849 219.663 88.8212 217.761 88.3875C214.182 87.5698 208.828 86.8594 204.329 87.998C204.329 87.998 207.787 83.2034 216.341 83.812C217.328 83.8817 218.379 84.02 219.505 84.2502C215.446 72.3064 203.26 61.8885 183.197 63.2562C168.485 64.2598 161.878 68.5298 158.925 71.9346C156.598 74.6201 155.961 77.3499 155.914 79.4368C156.716 79.9491 157.694 80.6108 158.779 81.423C160.836 82.9622 163.264 85.0325 165.54 87.6029C172.815 96.1807 168.812 104.787 168.812 104.787C168.235 97.2839 163.559 91.4061 159.23 87.5045C156.552 85.09 154.005 83.4314 152.647 82.617L152.628 82.6059C145.477 78.5594 130.553 75.284 118.695 82.8327C108.018 89.6301 106.528 99.9805 105.728 105.541L105.608 106.341C105.551 107.095 105.673 110.277 106.428 114.027C107.311 118.405 109.057 123.557 112.398 126.521C112.398 126.521 104.511 125.365 101.831 113.438C101.673 112.507 101.55 111.623 101.455 110.808C101.304 109.505 101.228 108.382 101.197 107.524C95.9541 105.579 78.4815 104.961 69.3061 118.969C65.5773 124.663 63.5796 132.081 63.6792 139.86C63.6991 141.398 63.8009 142.907 63.979 144.377C65.2057 154.492 70.0649 162.771 76.9882 166.111C76.9882 166.111 67.4555 166.111 62.0321 154.98C60.9448 152.177 60.1561 149.12 59.7026 145.876C59.5699 144.926 59.4748 143.955 59.4006 142.974C55.0071 144.845 46.4212 149.823 43.605 160.903C43.4667 161.45 43.3484 162.004 43.2422 162.563C43.209 162.738 43.1825 162.915 43.1526 163.091C43.0851 163.485 43.0232 163.88 42.9723 164.278C42.9457 164.476 42.9225 164.674 42.9004 164.874C42.8562 165.277 42.8207 165.682 42.792 166.088C42.7798 166.264 42.7643 166.439 42.7544 166.615C42.7245 167.172 42.7057 167.732 42.7035 168.293C42.7035 168.313 42.7024 168.333 42.7024 168.352C42.7013 168.965 42.7179 169.581 42.7511 170.196ZM1.22999 124.872C4.46212 111.672 13.4141 101.443 26.6236 95.7226C26.159 89.1676 26.9178 76.5344 37.5965 67.0128C49.6489 56.2663 66.4102 52.1378 79.1043 56.368C87.6868 46.0486 97.6885 42.7966 104.853 41.9413C114.312 40.8082 124.278 43.2646 131.721 48.4122C152.671 37.1611 173.841 46.9128 180.226 56.139L180.321 56.2773C181.105 56.2021 181.898 56.1357 182.708 56.0804C207.779 54.3675 222.891 69.0676 227.008 84.2458C241.405 92.1662 246.112 103.69 247.494 112.148C248.846 120.415 247.483 128.431 245.599 133.795C250.249 141.499 255.991 156.814 251.734 172.712C247.991 186.69 236.08 195.003 231.065 197.962C228.192 210.224 221.257 219.356 211.364 223.82C200.117 228.894 190.07 227.893 185.017 226.821C177.679 234.583 168.023 239.372 157.504 240.405C149.309 241.208 141.136 239.657 135.277 236.297C127.188 240.669 119.399 242.514 112.361 242.514C103.177 242.513 95.276 239.369 89.6768 234.593C81.4736 235.94 73.13 235.638 65.9224 233.702C55.6851 230.954 47.8161 224.97 43.1692 216.399C42.1847 214.584 41.3695 212.816 40.6925 211.1C28.8104 210.721 10.1244 204.684 4.17452 188.954C-0.0697349 177.732 0.78973 166.885 6.26069 159.491C1.22112 151.335 -1.84397 137.427 1.22999 124.872Z" fill="#111111"/>
<path d="M137.436 209.417C147.117 206.489 155.365 198.126 156.621 189.963C157.922 181.514 156.067 173.186 151.533 167.111C147.794 162.102 142.574 159.012 136.439 158.177C136.439 158.177 147.282 153.995 155.522 164.132C160.849 171.27 163.043 180.961 161.541 190.72C159.987 200.814 150.456 210.681 138.878 214.183C135.903 215.083 132.931 215.525 130.009 215.525C110.959 213.564 110.959 201.557 110.959 201.557C120.833 212.376 131.786 211.126 137.436 209.417Z" fill="#111111"/>
<path d="M175.06 133.341C175.089 133.175 175.124 133.011 175.16 132.849C174.981 132.896 174.8 132.946 174.621 132.99C174.769 133.105 174.914 133.224 175.06 133.341ZM86.7959 128.906C84.3823 136.791 88.0823 146.7 93.0511 151.008C97.7953 155.122 104.33 155.959 109.619 153.23C111.52 145.271 115.606 138.239 121.429 133.05C127.716 127.444 135.594 124.293 144.472 123.774C145.728 116.605 143.353 103.77 133.427 99.405C133.427 99.405 141.981 97.9787 146.551 107.176C149.007 112.782 149.582 119.028 148.948 123.732C149.621 123.758 150.299 123.796 150.982 123.851C157.307 124.357 162.889 126.085 167.709 128.563C171.292 129.102 176.243 127.827 180.947 125.029C181.063 124.957 181.172 124.882 181.291 124.812L181.385 124.757L181.386 124.758C186.703 121.476 191.636 116.256 193.814 109.522C195.792 103.402 195.047 96.6597 191.766 91.0231C187.471 83.7721 182.908 80.6893 182.908 80.6893C182.908 80.6893 191.619 80.6893 196.068 88.518C200.059 95.3762 200.964 103.59 198.55 111.054C198.506 111.191 198.455 111.322 198.409 111.457C202.52 110.012 206.534 109.939 209.64 110.278C217.255 111.579 217.255 117.324 217.255 117.324C215.809 115.725 204.045 111.516 195.122 118.169C192.203 122.641 188.202 126.341 183.893 129.006L183.916 129.044L183.792 129.117C180.401 131.088 179.215 134.056 180.166 138.17C184.636 143.136 187.532 148.644 188.76 153.438C189.721 153.322 190.651 153.254 191.531 153.231C195.516 153.128 199.338 153.796 202.845 154.976C215.493 160.359 215.31 169.55 215.31 169.55C211.15 163.715 201.7 157.948 191.661 158.208C182.704 158.442 174.904 163.38 169.106 172.485C169.106 172.485 169.106 161.372 181.169 155.395C182.08 155.022 182.98 154.709 183.866 154.446C181.314 145.214 170.285 130.391 150.586 128.814C127.643 126.973 115.34 143.3 113.622 159.242C112.505 169.605 116.085 176.091 119.285 179.71C123.16 184.089 128.652 186.649 134.354 186.731C134.354 186.731 125.527 191.229 115.558 183.009C114.519 181.835 113.591 180.572 112.774 179.231C109.988 185.019 105.458 189.136 99.6216 191.043C88.0071 194.753 83.7949 184.813 83.7949 184.813C87.2992 187.703 93.1064 188.515 98.2489 186.836C104.001 184.956 108.204 180.306 110.181 173.69C108.651 169.238 108.117 164.238 108.651 158.968C106.831 159.518 104.954 159.799 103.07 159.799C98.3561 159.799 93.6241 158.094 89.7913 154.771C87.349 152.653 85.1323 149.48 83.5439 145.791C79.2531 133.665 86.7959 128.906 86.7959 128.906Z" fill="#111111"/>
<g filter="url(#filter0_d_38_157)">
<path d="M220.483 207.913L206.26 204.102C218.942 146.788 231.427 84.4737 243.714 17.1581C258.085 15.9273 272.237 13.7684 286.169 10.6814L290.393 16.6274C271.618 61.7442 248.315 125.506 220.483 207.913ZM204.345 239.695C210.209 241.267 214.586 244.646 217.475 249.833C220.398 254.896 221.074 260.359 219.503 266.223C217.965 271.962 214.602 276.277 209.415 279.166C204.319 282.214 198.901 282.969 193.162 281.431C187.423 279.893 183.046 276.514 180.032 271.293C177.109 266.23 176.417 260.83 177.954 255.09C179.526 249.226 182.843 244.833 187.905 241.91C193.126 238.896 198.606 238.158 204.345 239.695Z" fill="white"/>
</g>
<defs>
<filter id="filter0_d_38_157" x="177.159" y="10.6814" width="121.234" height="279.523" filterUnits="userSpaceOnUse" color-interpolation-filters="sRGB">
<feFlood flood-opacity="0" result="BackgroundImageFix"/>
<feColorMatrix in="SourceAlpha" type="matrix" values="0 0 0 0 0 0 0 0 0 0 0 0 0 0 0 0 0 0 127 0" result="hardAlpha"/>
<feOffset dx="8" dy="8"/>
<feComposite in2="hardAlpha" operator="out"/>
<feColorMatrix type="matrix" values="0 0 0 0 0.0666667 0 0 0 0 0.0666667 0 0 0 0 0.0666667 0 0 0 1 0"/>
<feBlend mode="normal" in2="BackgroundImageFix" result="effect1_dropShadow_38_157"/>
<feBlend mode="normal" in="SourceGraphic" in2="effect1_dropShadow_38_157" result="shape"/>
</filter>
</defs>
</svg>
